<?xml version="1.0" encoding="utf-8"?>
<!-- Generator: Adobe Illustrator 28.0.0, SVG Export Plug-In . SVG Version: 6.00 Build 0)  -->
<svg version="1.1" id="Ebene_1" xmlns="http://www.w3.org/2000/svg" xmlns:xlink="http://www.w3.org/1999/xlink" x="0px" y="0px"
	 viewBox="0 0 24 24" style="enable-background:new 0 0 24 24;" xml:space="preserve"  fill="#023058">
<path d="M21.1,11.3h-2.6c-0.3,0-0.6-0.2-0.9-0.4l-1.7-2c-0.4-0.5-1-0.7-1.6-0.7H7.8c-0.6,0-1.2,0.3-1.6,0.7l-1.7,2
	c-0.2,0.2-0.5,0.4-0.9,0.4H2.3c-0.4,0-0.7,0.3-0.7,0.7v2.5h2.7c0,1,0.8,1.8,1.8,1.8c1,0,1.8-0.8,1.8-1.8h8.2c0,1,0.8,1.8,1.8,1.8
	s1.8-0.8,1.8-1.8h2.6v-1.8C22.4,11.9,21.8,11.3,21.1,11.3z M6.2,15.4c-0.5,0-0.9-0.4-0.9-0.9s0.4-0.9,0.9-0.9C6.7,13.6,7,14,7,14.5
	S6.7,15.4,6.2,15.4z M9,11.2H5.8c-0.2,0-0.2-0.2-0.1-0.3l1.6-1.8c0,0,0.1-0.1,0.1-0.1H9V11.2z M12.4,11.2h-3V9h3V11.2z M16.2,11.2
	H13V9h1.7c0,0,0.1,0,0.1,0.1l1.6,1.8C16.5,11.1,16.4,11.2,16.2,11.2z M18,15.4c-0.5,0-0.9-0.4-0.9-0.9s0.4-0.9,0.9-0.9
	c0.5,0,0.9,0.4,0.9,0.9S18.5,15.4,18,15.4z"/>
</svg>
