<svg xmlns="http://www.w3.org/2000/svg" xmlns:xlink="http://www.w3.org/1999/xlink" width="24" height="24" viewBox="0 0 24 24">
  <defs>
    <clipPath id="clip-path">
      <rect id="Rechteck_119" data-name="Rechteck 119" width="24" height="24" transform="translate(430 175)" fill="none"/>
    </clipPath>
  </defs>
  <g id="Gruppe_53" data-name="Gruppe 53" transform="translate(-430 -175)">
    <g id="Gruppe_maskieren_19" data-name="Gruppe maskieren 19" clip-path="url(#clip-path)">
      <path id="Limousine" d="M31.447,12.945h-3.98a2.75,2.75,0,0,1-1.378-.612l-2.6-3.061A3.045,3.045,0,0,0,21.039,8.2H11.09A3.612,3.612,0,0,0,8.641,9.271l-2.6,3.061a1.94,1.94,0,0,1-1.378.612H2.671A1.046,1.046,0,0,0,1.6,14.016v3.827H5.733a2.755,2.755,0,0,0,5.51,0H23.794a2.755,2.755,0,0,0,5.51,0h3.98V15.088A1.86,1.86,0,0,0,31.447,12.945ZM8.641,19.22a1.378,1.378,0,1,1,0-2.755,1.25,1.25,0,0,1,1.224,1.378A1.25,1.25,0,0,1,8.641,19.22Zm4.286-6.429h-4.9c-.306,0-.306-.306-.153-.459l2.449-2.755.153-.153h2.449Zm5.2,0H13.539V9.424h4.592Zm5.816,0h-4.9V9.424h2.6a.15.15,0,0,1,.153.153l2.449,2.755C24.406,12.639,24.253,12.792,23.947,12.792ZM26.7,19.22a1.378,1.378,0,1,1,1.378-1.378A1.372,1.372,0,0,1,26.7,19.22Z" transform="translate(418.699 174.512)" fill="#023058"/>
    </g>
  </g>
</svg>
