<svg xmlns="http://www.w3.org/2000/svg" xmlns:xlink="http://www.w3.org/1999/xlink" width="93.389" height="50" viewBox="0 0 93.389 50">
  <defs>
    <clipPath id="clip-path">
      <rect id="Rechteck_118" data-name="Rechteck 118" width="93.389" height="50" fill="none"/>
    </clipPath>
  </defs>
  <g id="Gruppe_52" data-name="Gruppe 52" transform="translate(0 0)">
    <g id="Gruppe_51" data-name="Gruppe 51" transform="translate(0 0)" clip-path="url(#clip-path)">
      <path id="Pfad_786" data-name="Pfad 786" d="M10.744,27.546v6.739h-.8V29.333c0-.066,0-.136.008-.212s.011-.152.017-.232L7.653,33.1a.35.35,0,0,1-.329.212H7.192a.352.352,0,0,1-.329-.212L4.5,28.872a4.5,4.5,0,0,1,.027.461v4.952h-.8V27.546H4.4a.572.572,0,0,1,.188.024.252.252,0,0,1,.127.132l2.329,4.148c.038.075.074.154.11.235s.071.165.1.249c.033-.085.064-.169.1-.251a2.564,2.564,0,0,1,.111-.238L9.755,27.7a.25.25,0,0,1,.125-.132.609.609,0,0,1,.19-.024Z" transform="translate(2.118 15.636)" fill="#d50f05"/>
      <path id="Pfad_787" data-name="Pfad 787" d="M15.5,30.944a3.894,3.894,0,0,1-.241,1.39,3.164,3.164,0,0,1-.677,1.088,3.025,3.025,0,0,1-1.05.709,3.791,3.791,0,0,1-2.712,0,3.048,3.048,0,0,1-1.049-.709A3.164,3.164,0,0,1,9.1,32.334a4.146,4.146,0,0,1,0-2.779,3.208,3.208,0,0,1,.677-1.091,3.034,3.034,0,0,1,1.049-.712,3.747,3.747,0,0,1,2.712,0,3.012,3.012,0,0,1,1.05.712,3.208,3.208,0,0,1,.677,1.091,3.892,3.892,0,0,1,.241,1.389m-.937,0a3.468,3.468,0,0,0-.168-1.115A2.38,2.38,0,0,0,13.916,29a2.061,2.061,0,0,0-.752-.524,2.734,2.734,0,0,0-1.969,0,2.092,2.092,0,0,0-.757.524,2.308,2.308,0,0,0-.48.834,3.715,3.715,0,0,0,0,2.228,2.314,2.314,0,0,0,.48.832,2.088,2.088,0,0,0,.757.522,2.778,2.778,0,0,0,1.969,0,2.057,2.057,0,0,0,.752-.522,2.387,2.387,0,0,0,.481-.832,3.445,3.445,0,0,0,.168-1.113" transform="translate(5.027 15.608)" fill="#d50f05"/>
      <path id="Pfad_788" data-name="Pfad 788" d="M19.525,27.546l-2.746,6.739H15.96l-2.746-6.739h.729a.3.3,0,0,1,.2.061.366.366,0,0,1,.113.155l1.9,4.755c.041.107.08.223.121.348s.074.257.105.4q.047-.207.1-.4t.113-.348l1.9-4.755a.344.344,0,0,1,.11-.149.313.313,0,0,1,.2-.067Z" transform="translate(7.5 15.636)" fill="#d50f05"/>
      <path id="Pfad_789" data-name="Pfad 789" d="M21.9,33.542l0,.743H17.747V27.546H21.9v.741H18.66v2.239h2.624v.715H18.66v2.3Z" transform="translate(10.073 15.636)" fill="#d50f05"/>
      <path id="Pfad_790" data-name="Pfad 790" d="M24.8,28.627a.309.309,0,0,1-.092.105.2.2,0,0,1-.119.036.336.336,0,0,1-.188-.08,3.077,3.077,0,0,0-.271-.176,2.179,2.179,0,0,0-.39-.179,1.713,1.713,0,0,0-.552-.078,1.609,1.609,0,0,0-.538.082,1.15,1.15,0,0,0-.39.224.922.922,0,0,0-.238.332,1.043,1.043,0,0,0-.08.411.748.748,0,0,0,.14.467,1.153,1.153,0,0,0,.365.318,2.856,2.856,0,0,0,.517.227c.193.064.39.132.593.2s.4.147.593.232a2.128,2.128,0,0,1,.517.326,1.454,1.454,0,0,1,.367.486,1.612,1.612,0,0,1,.14.705,2.279,2.279,0,0,1-.15.831,1.912,1.912,0,0,1-.44.674,2.057,2.057,0,0,1-.71.451,2.6,2.6,0,0,1-.956.165,2.918,2.918,0,0,1-1.195-.238,2.777,2.777,0,0,1-.917-.641l.263-.433a.354.354,0,0,1,.092-.088.221.221,0,0,1,.119-.034.282.282,0,0,1,.14.049c.05.034.11.075.176.125s.141.105.226.165a1.932,1.932,0,0,0,.288.165,1.9,1.9,0,0,0,.37.124,1.918,1.918,0,0,0,.466.05,1.738,1.738,0,0,0,.578-.089,1.233,1.233,0,0,0,.43-.251,1.109,1.109,0,0,0,.271-.389,1.3,1.3,0,0,0,.094-.5.853.853,0,0,0-.138-.5,1.172,1.172,0,0,0-.365-.328,2.533,2.533,0,0,0-.517-.224l-.593-.188a6.279,6.279,0,0,1-.593-.223,1.914,1.914,0,0,1-.517-.329,1.493,1.493,0,0,1-.364-.506,1.926,1.926,0,0,1,0-1.441,1.738,1.738,0,0,1,.4-.593,1.992,1.992,0,0,1,.654-.414,2.4,2.4,0,0,1,.892-.155,2.823,2.823,0,0,1,1.027.179,2.43,2.43,0,0,1,.817.517Z" transform="translate(11.807 15.608)" fill="#d50f05"/>
      <path id="Pfad_791" data-name="Pfad 791" d="M28.307,31.6v2.685h-.912V31.6l-2.469-4.054h.8a.3.3,0,0,1,.193.058.551.551,0,0,1,.122.154l1.543,2.619c.056.11.107.212.155.307a2.86,2.86,0,0,1,.122.29c.034-.1.074-.193.118-.29s.092-.2.146-.307l1.538-2.619a.535.535,0,0,1,.116-.146.289.289,0,0,1,.194-.066h.8Z" transform="translate(14.148 15.636)" fill="#d50f05"/>
      <path id="Pfad_792" data-name="Pfad 792" d="M35.425,30.944a3.9,3.9,0,0,1-.241,1.39,3.164,3.164,0,0,1-.677,1.088,3.025,3.025,0,0,1-1.05.709,3.791,3.791,0,0,1-2.712,0,3.048,3.048,0,0,1-1.049-.709,3.164,3.164,0,0,1-.677-1.088,4.146,4.146,0,0,1,0-2.779,3.208,3.208,0,0,1,.677-1.091,3.035,3.035,0,0,1,1.049-.712,3.747,3.747,0,0,1,2.712,0,3.012,3.012,0,0,1,1.05.712,3.208,3.208,0,0,1,.677,1.091,3.892,3.892,0,0,1,.241,1.389m-.937,0a3.469,3.469,0,0,0-.168-1.115A2.38,2.38,0,0,0,33.838,29a2.061,2.061,0,0,0-.752-.524,2.734,2.734,0,0,0-1.969,0A2.092,2.092,0,0,0,30.36,29a2.308,2.308,0,0,0-.48.834,3.715,3.715,0,0,0,0,2.228,2.314,2.314,0,0,0,.48.832,2.088,2.088,0,0,0,.757.522,2.778,2.778,0,0,0,1.969,0,2.057,2.057,0,0,0,.752-.522,2.387,2.387,0,0,0,.481-.832,3.445,3.445,0,0,0,.168-1.113" transform="translate(16.334 15.608)" fill="#d50f05"/>
      <path id="Pfad_793" data-name="Pfad 793" d="M36.3,33.561a1.882,1.882,0,0,0,.748-.141,1.565,1.565,0,0,0,.556-.4,1.707,1.707,0,0,0,.35-.607,2.441,2.441,0,0,0,.119-.776v-4.1h.908v4.1a3.073,3.073,0,0,1-.185,1.082,2.556,2.556,0,0,1-.531.864,2.446,2.446,0,0,1-.845.571,3.131,3.131,0,0,1-2.239,0,2.452,2.452,0,0,1-.846-.571,2.515,2.515,0,0,1-.535-.864,3.074,3.074,0,0,1-.185-1.082v-4.1h.908v4.09a2.444,2.444,0,0,0,.119.778,1.728,1.728,0,0,0,.348.607,1.6,1.6,0,0,0,.56.4,1.849,1.849,0,0,0,.751.144" transform="translate(19.079 15.636)" fill="#d50f05"/>
      <path id="Pfad_794" data-name="Pfad 794" d="M66.028,7.019a6.075,6.075,0,0,1-1.019,3.386,20.5,20.5,0,0,1-8.935,7.681,20.552,20.552,0,0,1-8.92-7.681,6.075,6.075,0,0,1-1.019-3.386,6.287,6.287,0,0,1,1.6-4.17,4.865,4.865,0,0,1,6.082-.925A4.49,4.49,0,0,1,56.074,5.8a4.505,4.505,0,0,1,2.273-3.872,4.865,4.865,0,0,1,6.082.925,6.287,6.287,0,0,1,1.6,4.17" transform="translate(26.186 0.71)" fill="#d50f05"/>
      <path id="Pfad_795" data-name="Pfad 795" d="M56.5,19.689a1.166,1.166,0,0,1-.489-.107,21.716,21.716,0,0,1-9.415-8.109,7.235,7.235,0,0,1-1.209-4.027A7.492,7.492,0,0,1,47.278,2.5,6.029,6.029,0,0,1,54.84,1.339,5.837,5.837,0,0,1,56.5,2.8a5.948,5.948,0,0,1,1.671-1.459,6.033,6.033,0,0,1,7.557,1.155,7.5,7.5,0,0,1,1.9,4.954,7.263,7.263,0,0,1-1.216,4.038,21.661,21.661,0,0,1-9.424,8.1,1.178,1.178,0,0,1-.489.105M51.757,2.847a3.633,3.633,0,0,0-2.718,1.21,5.135,5.135,0,0,0-1.3,3.389,4.908,4.908,0,0,0,.82,2.734A19.4,19.4,0,0,0,56.5,17.214a19.308,19.308,0,0,0,7.948-7.023,4.929,4.929,0,0,0,.829-2.745,5.144,5.144,0,0,0-1.3-3.392,3.677,3.677,0,0,0-4.606-.691,3.326,3.326,0,0,0-1.693,2.861,1.176,1.176,0,0,1-2.351,0,3.311,3.311,0,0,0-1.679-2.859,3.691,3.691,0,0,0-1.887-.517" transform="translate(25.761 0.283)" fill="#0d3558"/>
      <path id="Pfad_796" data-name="Pfad 796" d="M12.631,15.461h-5.2V.4H0V37.053H7.436v-16.4h5.2v16.4h7.435V.4H12.631Z" transform="translate(0 0.228)" fill="#023058"/>
      <path id="Pfad_797" data-name="Pfad 797" d="M29.6,18.545H25.505v5.2H29.6v2.508l-.016-.172c0,.219.016.439.016.658,0,3.652-1.16,5.487-3.5,5.487a4.783,4.783,0,0,1-.847-.125h-.016l-.031-.016a2.8,2.8,0,0,1-1.662-1.317l-.031-.031a7.586,7.586,0,0,1-.784-3.5V11.835c-.016-.47-.016-.909,0-1.332.141-3.214,1.285-4.828,3.48-4.828C28.8,5.8,29.6,8.042,29.6,11.271v2.994h6.96V12.07S37.309,3.1,30.114.627A12.611,12.611,0,0,0,26.022,0a12.057,12.057,0,0,0-3.982.627C16.194,2.681,15.378,9.217,15.3,11.82a9.966,9.966,0,0,0,0,1.1V24.6c0,1.787.3,10.377,5.926,12.682a7.862,7.862,0,0,0,3.088.58A8.558,8.558,0,0,0,29.6,36.18c.157-.125.3-.235.423-.345a6.04,6.04,0,0,0,1-1.082l.815,2.524h5.189V18.545H29.6Z" transform="translate(8.676 0.001)" fill="#023058"/>
      <path id="Pfad_798" data-name="Pfad 798" d="M44.367.4,40.7,22.611,37.581.4H30.5l6.816,36.65h6.72L51.183.4Z" transform="translate(17.31 0.228)" fill="#023058"/>
    </g>
  </g>
</svg>
