<svg xmlns="http://www.w3.org/2000/svg" width="98" height="98" viewBox="0 0 98 98">
  <g id="mail" transform="translate(-980 -4021)">
    <g id="Ellipse_645" data-name="Ellipse 645" transform="translate(980 4021)" fill="#d8e1ed" stroke="rgba(0,48,87,0.1)" stroke-width="1">
      <circle cx="49" cy="49" r="49" stroke="none"/>
      <circle cx="49" cy="49" r="48.5" fill="none"/>
    </g>
    <path id="contact" d="M130.606-787.733l-2.692-2.692,4.68-4.77H120.938v-3.867h11.656l-4.68-4.77,2.692-2.692,9.4,9.4Zm-35.945-7.462a4.488,4.488,0,0,1-3.291-1.369A4.488,4.488,0,0,1,90-799.855v-25.484a4.488,4.488,0,0,1,1.369-3.292A4.488,4.488,0,0,1,94.661-830h33.218a4.488,4.488,0,0,1,3.291,1.369,4.488,4.488,0,0,1,1.369,3.292v13.545q-.483-.079-.967-.119t-.967-.04q-.483,0-.967.02a8.009,8.009,0,0,0-.967.1v-11.532l-17.66,12.553L93.868-823.326v23.471a.772.772,0,0,0,.223.57.772.772,0,0,0,.57.223H115.9a7.992,7.992,0,0,0-.1.967q-.02.484-.02.967t.04.967q.04.483.119.967Zm1.9-30.937,14.447,10.59,14.884-10.59Zm-2.7,27.07v0Z" transform="translate(917.999 4881.999)" fill="#023058"/>
  </g>
</svg>
