<svg xmlns="http://www.w3.org/2000/svg" width="98" height="98" viewBox="0 0 98 98">
  <g id="tour" transform="translate(-847 -3911)">
    <g id="Ellipse_644" data-name="Ellipse 644" transform="translate(847 3911)" fill="#d8e1ed" stroke="rgba(0,48,87,0.1)" stroke-width="1">
      <circle cx="49" cy="49" r="49" stroke="none"/>
      <circle cx="49" cy="49" r="48.5" fill="none"/>
    </g>
    <path id="tour-2" data-name="tour" d="M210-820v-50h3.846v5.128h35.6l-4.882,12.179,4.882,12.18h-35.6V-820H210Zm3.846-41.026v0Zm14.744,12.821a4.327,4.327,0,0,0,3.178-1.309,4.327,4.327,0,0,0,1.309-3.178,4.327,4.327,0,0,0-1.309-3.178,4.327,4.327,0,0,0-3.178-1.309,4.327,4.327,0,0,0-3.178,1.309,4.327,4.327,0,0,0-1.309,3.178,4.327,4.327,0,0,0,1.309,3.178A4.327,4.327,0,0,0,228.591-848.205Zm-14.744,3.846h29.911l-3.323-8.333,3.323-8.333H213.847Z" transform="translate(669.999 4806)" fill="#023058"/>
  </g>
</svg>
