<svg xmlns="http://www.w3.org/2000/svg" width="98" height="98" viewBox="0 0 98 98">
  <g id="verified" transform="translate(-980 -3883)">
    <g id="Ellipse_643" data-name="Ellipse 643" transform="translate(980 3883)" fill="#d8e1ed" stroke="rgba(0,48,87,0.1)" stroke-width="1">
      <circle cx="49" cy="49" r="49" stroke="none"/>
      <circle cx="49" cy="49" r="48.5" fill="none"/>
    </g>
    <path id="apply" d="M85.015-824.614l-4.522-7.622-8.587-1.881.838-8.84-5.819-6.657,5.819-6.657-.838-8.84,8.587-1.881,4.522-7.622,8.08,3.431,8.08-3.431,4.522,7.622,8.587,1.881-.838,8.84,5.819,6.657-5.819,6.657.838,8.84-8.587,1.881-4.522,7.622-8.08-3.431-8.08,3.431Zm1.618-4.854,6.462-2.739,6.54,2.739,3.6-6.082,6.969-1.6-.634-7.144,4.688-5.322-4.688-5.4.634-7.144-6.969-1.521-3.674-6.082-6.462,2.739-6.54-2.739-3.6,6.082-6.969,1.521.634,7.144-4.688,5.4,4.688,5.322-.634,7.222,6.969,1.521ZM93.094-849.614ZM90.434-841.5l13.44-13.44-2.671-2.749-10.77,10.77-5.448-5.37-2.671,2.67Z" transform="translate(935.906 4781.614)" fill="#023058"/>
  </g>
</svg>
